
<svg xmlns="http://www.w3.org/2000/svg" version="1.0" fill="ff8bc1" viewBox="-216.442279392442 -171.3235921553589 432.884558784884 328.99226459755374"><rect x="-216.442279392442" y="-171.3235921553589" width="432.884558784884" height="328.99226459755374" fill="#232323"></rect><g transform="translate(-131.46625485628496 73.5052754982415) scale(1.628240197994008)" fill="white"><g id="line1"><path d="M11.160-8.280C10.512-6.912 10.224-5.688 10.224-4.536C10.224-1.440 12.168 0 15.336 0C19.656 0 22.824-4.824 23.832-7.488C24.336-8.784 22.608-9.360 22.032-8.280C21.456-7.056 19.368-2.016 15.336-2.016C13.464-2.016 12.384-2.808 12.384-4.536C12.384-5.184 12.672-6.264 13.176-7.416L18.432-18.720C19.080-20.088 19.368-21.240 19.368-22.392C19.368-25.488 17.136-27.000 13.896-27.000C12.600-27.000 11.448-26.496 10.440-25.704L17.496-41.184C18.144-42.696 16.056-43.416 15.480-42.048L0-8.280C-1.080-5.976-3.096-2.016-6.696-2.016C-8.136-2.016-8.208 0-6.696 0C-2.088 0 1.008-5.184 2.088-7.488L7.632-19.656C8.640-21.672 10.800-24.984 13.896-24.984C15.840-24.984 17.208-24.120 17.208-22.392C17.208-21.744 16.920-20.664 16.416-19.584Z" transform="translate(0 0) scale(1 1) skewX(0)" style="opacity: 1;"></path><path d="M25.056 0C29.376 0 32.544-4.824 33.552-7.488C34.056-8.784 32.328-9.360 31.752-8.280C31.176-7.056 29.088-2.016 25.056-2.016C23.976-2.016 23.976 0 25.056 0ZM1.584 2.232C-2.808 2.376-5.328 6.336-5.328 9.288C-5.328 12.888-2.880 16.272 3.240 16.272C10.584 16.272 15.984 10.296 19.728 2.016L32.112-25.056C32.760-26.568 30.672-27.288 30.096-25.920L17.352 2.016C13.824 9.792 8.496 14.256 3.240 14.256C-1.440 14.256-3.168 11.808-3.168 9.288C-3.168 7.272-1.584 4.464 1.584 4.248C3.096 4.248 3.096 2.232 1.584 2.232ZM36.144-33.048C36.360-34.128 35.568-35.064 34.488-35.064C33.480-35.064 32.400-34.128 32.256-33.048C32.040-31.968 32.688-31.104 33.840-31.104C34.920-31.104 35.928-31.968 36.144-33.048Z" transform="translate(0 0) scale(1 1) skewX(0)" style="opacity: 1;"></path><path d="M50.184-18.720L50.472-19.368C51.552-21.456 53.640-24.696 56.880-24.984C58.824-25.128 60.192-24.120 60.192-22.392C60.192-21.744 59.904-20.664 59.400-19.584L54.144-8.280C53.496-6.912 53.208-5.688 53.208-4.536C53.208-1.440 55.152 0 58.320 0C62.640 0 65.808-4.824 66.816-7.488C67.320-8.784 65.592-9.360 65.016-8.280C64.440-7.056 62.352-2.016 58.320-2.016C56.448-2.016 55.368-2.808 55.368-4.536C55.368-5.184 55.656-6.264 56.160-7.416L61.416-18.720C62.064-20.088 62.352-21.240 62.352-22.392C62.352-25.488 60.192-27.216 56.880-27.000C54.504-26.784 52.488-25.056 51.048-23.256C50.688-25.776 48.600-27.144 45.648-27.000C44.280-26.856 43.056-26.280 41.976-25.416C42.264-26.712 40.392-27.216 39.888-25.992L31.752-8.280C30.672-5.976 28.656-2.016 25.056-2.016C23.616-2.016 23.544 0 25.056 0C29.664 0 32.760-5.184 33.840-7.488L39.312-19.512C40.320-21.384 42.480-24.696 45.648-24.984C47.592-25.128 48.960-24.120 48.960-22.392C48.960-21.744 48.672-20.664 48.168-19.584L39.888-1.512C39.312-0.072 41.544 0.072 42.264-1.512Z" transform="translate(0 0) scale(1 1) skewX(0)" style="opacity: 1;"></path><path d="M83.520-38.376L79.128-28.872C77.184-27.648 75.312-26.856 73.872-26.712C71.712-26.496 72.360-24.120 74.160-24.552C75.168-24.624 76.320-25.056 77.616-25.632L66.456-1.440C65.664 0.216 67.464 0.864 68.400-0.576L80.856-27.504C83.664-29.448 86.472-32.184 88.776-35.352C91.152-38.304 92.232-40.752 92.232-42.480C92.232-44.064 91.296-45.144 90.072-45.144C88.416-45.144 86.256-43.920 83.520-38.376ZM85.464-37.440C87.480-41.616 89.064-43.200 89.712-43.200C89.928-43.200 90.216-42.912 90.216-42.552C90.216-41.400 89.352-38.952 87.264-36.432C85.896-34.632 84.384-33.048 82.800-31.608Z" transform="translate(0 0) scale(1 1) skewX(0)" style="opacity: 1;"></path><path d="M89.640-21.960C88.632-18.792 88.416-15.840 88.488-13.248C88.776-4.248 94.104 2.160 102.528 2.160C115.776 2.160 129.168-14.616 128.664-29.304C128.376-38.448 123.048-44.856 114.624-44.856C104.472-44.856 93.312-34.704 89.640-21.960ZM91.656-21.240C95.112-33.120 105.408-42.696 114.696-42.696C121.824-42.696 126.288-37.152 126.504-29.304C126.936-16.776 115.416 0 102.456 0C95.328 0 90.864-5.544 90.648-13.248C90.576-15.696 90.792-18.360 91.656-21.240Z" transform="translate(0 0) scale(1 1) skewX(0)" style="opacity: 1;"></path><path d="M130.248-21.960C129.240-18.792 129.024-15.840 129.096-13.248C129.384-4.248 134.712 2.160 143.136 2.160C156.384 2.160 169.776-14.616 169.272-29.304C168.984-38.448 163.656-44.856 155.232-44.856C145.080-44.856 133.920-34.704 130.248-21.960ZM132.264-21.240C135.720-33.120 146.016-42.696 155.304-42.696C162.432-42.696 166.896-37.152 167.112-29.304C167.544-16.776 156.024 0 143.064 0C135.936 0 131.472-5.544 131.256-13.248C131.184-15.696 131.400-18.360 132.264-21.240Z" transform="translate(0 0) scale(1 1) skewX(0)" style="opacity: 1;"></path></g></g><g transform="translate(-83.04446129595121 -154.87171365638594) scale(1.6608815279703528)" id="logomark"><g fill="white" transform="translate(0 0) scale(1 1) skewX(0)" style="opacity: 1;"><path d="M84.127 25.092c-9.026-2.624-3.081 14.288-2.763 19.097-3.018-3.02-11.529-16.142-13.62-5.138-.536 4.06 2.128 13.945 4.368 17.418-2.59-2.646-7.419-8.766-11.162-4.494-4.117 4.698 2.105 7.507 2.745 11.087 1.224 6.358-7.164 7.314-9.811 9.903l2.963 2.219c7.481-2.506 13.627-6.935 21.029-10.643 7.749-4.536 14.191-10.596 15.185-19.917 1.155-6.918-.334-17.283-8.934-19.532zM36.306 63.061c.639-3.58 6.861-6.388 2.745-11.087-3.743-4.272-8.573 1.848-11.162 4.494 2.24-3.473 4.905-13.358 4.368-17.418-2.091-11.004-10.602 2.118-13.62 5.138.318-4.808 6.262-21.721-2.763-19.097-8.6 2.25-10.089 12.615-8.935 19.532.994 9.321 7.436 15.381 15.185 19.917 7.403 3.708 13.548 8.136 21.029 10.643l2.963-2.219c-2.647-2.589-11.035-3.545-9.81-9.903z"></path></g></g></svg>